<svg xmlns="http://www.w3.org/2000/svg" width="18" height="18" viewBox="0 0 18 18">
  <metadata><?xpacket begin="﻿" id="W5M0MpCehiHzreSzNTczkc9d"?>
<x:xmpmeta xmlns:x="adobe:ns:meta/" x:xmptk="Adobe XMP Core 5.6-c138 79.159824, 2016/09/14-01:09:01        ">
   <rdf:RDF xmlns:rdf="http://www.w3.org/1999/02/22-rdf-syntax-ns#">
      <rdf:Description rdf:about=""/>
   </rdf:RDF>
</x:xmpmeta>
                                                                                                    
                                                                                                    
                                                                                                    
                                                                                                    
                                                                                                    
                                                                                                    
                                                                                                    
                                                                                                    
                                                                                                    
                                                                                                    
                                                                                                    
                                                                                                    
                                                                                                    
                                                                                                    
                                                                                                    
                                                                                                    
                                                                                                    
                                                                                                    
                                                                                                    
                                                                                                    
                           
<?xpacket end="w"?></metadata>
<defs>
    <style>
      .cls-1 {
        fill: #008efd;
        fill-rule: evenodd;
      }
    </style>
  </defs>
  <path id="ico-v" class="cls-1" d="M1206.28,5214.84h0.01a0.836,0.836,0,0,0-.23.57,0.847,0.847,0,0,0,.85.84,0.856,0.856,0,0,0,.62-0.28v0.01l2.47-2.7,2.47,2.7v-0.01a0.856,0.856,0,0,0,.62.28,0.847,0.847,0,0,0,.85-0.84,0.836,0.836,0,0,0-.23-0.57h0.01l-3.1-3.38a0.847,0.847,0,0,0-1.24,0ZM1201,5214a9,9,0,1,0,9-9A9,9,0,0,0,1201,5214Zm16.31,0a7.31,7.31,0,1,1-7.31-7.31A7.319,7.319,0,0,1,1217.31,5214Z" transform="translate(-1201 -5205)"/>
</svg>
